<svg width="22" height="23" viewBox="0.1688690185546875 0.2951316833496094 21.662261962890625 22.40973663330078" fill="none" xmlns="http://www.w3.org/2000/svg">
<path d="M11 0C8.01251 0 7.63853 0.0133406 6.46503 0.0667032C5.29152 0.124513 4.49629 0.315728 3.79562 0.595882C3.07347 0.884929 2.45877 1.27625 1.84408 1.90771C1.22939 2.53917 0.855412 3.17507 0.576006 3.92659C0.305197 4.65144 0.12036 5.47856 0.0644783 6.68811C0.00859711 7.9021 0 8.28898 0 11.3796C0 14.4701 0.0128957 14.857 0.0644783 16.071C0.12036 17.2806 0.305197 18.1077 0.576006 18.8325C0.855412 19.5796 1.23369 20.2155 1.84408 20.8514C2.45447 21.4829 3.06917 21.8742 3.79562 22.1632C4.49629 22.4434 5.29582 22.6346 6.46503 22.6924C7.63853 22.7502 8.01251 22.7591 11 22.7591C13.9875 22.7591 14.3615 22.7458 15.535 22.6924C16.7042 22.6346 17.5037 22.4434 18.2044 22.1632C18.9265 21.8742 19.5412 21.4829 20.1559 20.8514C20.7663 20.22 21.1446 19.5841 21.424 18.8325C21.6948 18.1077 21.8796 17.2806 21.9355 16.071C21.9914 14.857 22 14.4701 22 11.3796C22 8.28898 21.9871 7.9021 21.9355 6.68811C21.8796 5.47856 21.6948 4.65144 21.424 3.92659C21.1446 3.17952 20.7663 2.54361 20.1559 1.90771C19.5455 1.27625 18.9308 0.884929 18.2044 0.595882C17.5037 0.315728 16.7042 0.124513 15.535 0.0667032C14.3615 0.0133406 13.9875 0 11 0ZM11 2.05001C13.9359 2.05001 14.2884 2.06335 15.449 2.11671C16.5236 2.17008 17.104 2.3524 17.4908 2.51249C18.0066 2.71704 18.372 2.96607 18.7589 3.36184C19.1415 3.76206 19.3822 4.14005 19.5799 4.67367C19.7304 5.07389 19.9109 5.67422 19.9582 6.78594C20.0098 7.9866 20.0227 8.34679 20.0227 11.3885C20.0227 14.4301 20.0098 14.7903 19.9539 15.991C19.898 17.1027 19.7175 17.703 19.567 18.1032C19.3607 18.6369 19.1286 19.0149 18.7417 19.4151C18.3591 19.8108 17.9852 20.0599 17.4779 20.2644C17.0911 20.4201 16.5022 20.6068 15.4275 20.6558C14.2583 20.7091 13.9144 20.7225 10.9699 20.7225C8.0254 20.7225 7.68152 20.7091 6.51231 20.6513C5.43767 20.5935 4.84877 20.4067 4.4619 20.2511C3.94177 20.0376 3.5807 19.7975 3.19812 19.3973C2.81125 19.0015 2.56624 18.6146 2.3728 18.0899C2.22235 17.6897 2.04181 17.0805 1.98593 15.9687C1.94295 14.7725 1.93005 14.4034 1.93005 11.3751C1.93005 8.34235 1.94295 7.97326 1.98593 6.7637C2.04181 5.65198 2.21805 5.04276 2.3728 4.64254C2.56624 4.10002 2.81125 3.73093 3.19812 3.33071C3.5807 2.93494 3.94177 2.67702 4.4619 2.47691C4.84877 2.32127 5.42478 2.1345 6.49941 2.07669C7.66862 2.03222 8.01251 2.01888 10.957 2.01888L11 2.05001ZM11 5.53636C7.87925 5.53636 5.3474 8.15558 5.3474 11.384C5.3474 14.6124 7.87925 17.2317 11 17.2317C14.1208 17.2317 16.6526 14.6124 16.6526 11.384C16.6526 8.15558 14.1208 5.53636 11 5.53636ZM11 15.1772C8.97538 15.1772 7.33334 13.4785 7.33334 11.384C7.33334 9.28953 8.97538 7.59082 11 7.59082C13.0246 7.59082 14.6667 9.28953 14.6667 11.384C14.6667 13.4785 13.0246 15.1772 11 15.1772ZM18.1958 5.30957C18.1958 6.06554 17.6026 6.67477 16.8761 6.67477C16.1454 6.67477 15.5565 6.0611 15.5565 5.30957C15.5565 4.55805 16.1497 3.94438 16.8761 3.94438C17.6026 3.93994 18.1958 4.5536 18.1958 5.30957Z" fill="white"/>
</svg>
